<?xml version="1.0" encoding="UTF-8" standalone="no"?>
<!-- Created with Inkscape (http://www.inkscape.org/) -->

<svg
   version="1.1"
   id="svg2"
   width="3779.5332"
   height="2267.72"
   viewBox="0 0 3779.5332 2267.72"
   xmlns="http://www.w3.org/2000/svg"
   xmlns:svg="http://www.w3.org/2000/svg">
  <defs
     id="defs6">
    <linearGradient
       x1="0"
       y1="0"
       x2="1"
       y2="0"
       gradientUnits="userSpaceOnUse"
       gradientTransform="matrix(504.56274,0,0,-504.56274,195.11525,967.86066)"
       spreadMethod="pad"
       id="linearGradient36">
      <stop
         style="stop-opacity:1;stop-color:#8d7642"
         offset="0"
         id="stop26" />
      <stop
         style="stop-opacity:1;stop-color:#f6c35b"
         offset="0.251397"
         id="stop28" />
      <stop
         style="stop-opacity:1;stop-color:#f6c458"
         offset="0.494413"
         id="stop30" />
      <stop
         style="stop-opacity:1;stop-color:#f6c35b"
         offset="0.723464"
         id="stop32" />
      <stop
         style="stop-opacity:1;stop-color:#8d7642"
         offset="1"
         id="stop34" />
    </linearGradient>
    <clipPath
       clipPathUnits="userSpaceOnUse"
       id="clipPath46">
      <path
         d="M 0,1700.787 H 2834.646 V 0 H 0 Z"
         id="path44" />
    </clipPath>
  </defs>
  <g
     id="g8"
     transform="matrix(1.3333333,0,0,-1.3333333,0,2267.72)">
    <text
       xml:space="preserve"
       transform="matrix(1,0,0,-0.98039228,100.2358,511.0293)"
       style="font-variant:normal;font-weight:normal;font-stretch:normal;font-size:142.143px;font-family:Furore;-inkscape-font-specification:Furore;writing-mode:lr-tb;fill:#f6c35b;fill-opacity:1;fill-rule:nonzero;stroke:none"
       id="text12"><tspan
         x="0 62.400776 194.16734 325.9339 451.44617 583.21271 645.61353 771.12579 902.89233 965.29309 1095.6382 1180.7819 1306.2942 1438.0608 1523.2043 1653.5496 1776.2189 1838.6198 1990.1442 2115.6565 2247.4229 2370.6609 2502.4275"
         y="0"
         id="tspan10">INGENIERIA EN ALIMENTOS</tspan></text>
    <g
       id="g14">
      <g
         id="g16">
        <g
           id="g22">
          <g
             id="g24">
            <path
               d="m 597.472,1149.833 c -2.958,-34.238 -57.82,-66.445 -89.341,-68.053 v 0 c -8.072,-0.411 -16.147,0.583 -24.21,1.577 v 0 c -9.763,1.204 -19.509,2.408 -29.211,1.117 v 0 c -42.157,-5.614 -43.816,-39.971 -54.853,-71.88 v 0 c -8.248,-23.848 -32.841,-37.32 -55.423,-48.584 v 0 c -11.94,-5.955 -24.642,-12.069 -37.942,-11.013 v 0 c -11.552,0.917 -21.928,7.138 -33.017,10.504 v 0 c -19.891,6.038 -42.844,2.148 -58.775,-11.207 v 0 c -31.848,-26.696 -23.262,-82.634 14.228,-99.913 v 0 c 32.217,-14.847 72.045,5.081 83.231,37.593 v 0 c 12.924,37.563 29.518,66.093 71.463,76.897 v 0 c 35.566,9.16 73.67,0.856 107.087,-14.382 v 0 c 15.323,-6.988 30.269,-15.637 41.448,-28.232 v 0 c 16.213,-18.267 19.849,-43.252 13.238,-66.341 v 0 C 530.649,806.433 567.23,756.684 620.06,756.364 v 0 c 45.379,-0.275 81.489,36.805 79.542,81.68 v 0 c -1.925,44.401 -41.525,77.97 -86.981,73.733 v 0 c -84.679,-7.892 -106.671,101.227 -65.371,158.15 v 0 c 9.674,13.332 23.275,23.194 36.638,32.821 v 0 c 8.058,5.805 16.529,11.784 26.352,13.251 v 0 c 4.187,0.626 8.435,0.395 12.682,0.165 v 0 c 4.381,-0.238 8.761,-0.475 13.073,0.227 v 0 c 16.445,2.68 27.352,18.918 25.486,35.055 v 0 c -1.792,15.489 -15.786,27.728 -31.907,27.911 v 0 c -0.122,0 -0.244,0 -0.366,0 v 0 c -16.443,0 -30.269,-12.548 -31.736,-29.526"
               style="fill:url(#linearGradient36);stroke:none"
               id="path38" />
          </g>
        </g>
      </g>
    </g>
    <g
       id="g40">
      <g
         id="g42"
         clip-path="url(#clipPath46)">
        <g
           id="g48"
           transform="translate(1097.0134,1083.1044)">
          <path
             d="M 0,0 -50.332,-148.31 H 50.331 Z m 210.049,-304.672 c 0,-7.162 -4.478,-10.737 -13.422,-10.737 h -70.464 c -7.612,0 -13.086,1.342 -16.441,4.026 -3.355,2.685 -6.375,8.053 -9.059,16.106 l -18.791,53.016 H -82.544 l -18.79,-53.016 c -2.684,-8.053 -5.704,-13.421 -9.06,-16.106 -3.355,-2.684 -8.839,-4.026 -16.441,-4.026 h -70.464 c -8.955,0 -13.421,3.575 -13.421,10.737 0,2.684 0.67,5.368 2.013,8.053 l 148.98,401.98 c 2.685,7.15 6.145,12.414 10.402,15.77 4.246,3.355 9.95,5.033 17.113,5.033 h 64.424 c 7.151,0 12.75,-1.678 16.776,-5.033 4.028,-3.356 7.603,-8.62 10.738,-15.77 l 148.31,-401.98 c 1.342,-2.685 2.013,-5.369 2.013,-8.053"
             style="fill:#141515;fill-opacity:1;fill-rule:nonzero;stroke:none"
             id="path50" />
        </g>
        <g
           id="g52"
           transform="translate(1740.5813,1206.5837)">
          <path
             d="m 0,0 c 1.782,-1.793 2.685,-4.026 2.685,-6.71 0,-3.587 -1.343,-6.712 -4.027,-9.396 L -152.336,-179.851 -8.053,-417.414 c 1.783,-2.244 2.685,-5.369 2.685,-9.396 0,-3.135 -1.122,-5.934 -3.356,-8.388 -2.244,-2.464 -5.369,-3.691 -9.396,-3.691 h -81.871 c -7.613,0 -13.988,1.678 -19.126,5.034 -5.148,3.354 -9.961,8.828 -14.428,16.441 l -95.965,161.06 -41.607,-43.621 v -119.453 c 0,-7.161 -1.573,-12.194 -4.699,-15.099 -3.134,-2.915 -7.832,-4.362 -14.092,-4.362 h -66.438 c -6.711,0 -11.638,1.343 -14.763,4.027 -3.135,2.684 -4.698,7.822 -4.698,15.434 v 402.651 c 0,7.602 1.563,12.751 4.698,15.435 3.125,2.684 8.052,4.027 14.763,4.027 h 66.438 c 6.26,0 10.958,-1.458 14.092,-4.363 3.126,-2.915 4.699,-7.948 4.699,-15.099 v -149.652 l 138.913,153.007 c 6.711,7.152 11.965,11.629 15.77,13.422 3.797,1.782 9.732,2.685 17.785,2.685 H -8.053 C -4.478,2.685 -1.793,1.782 0,0"
             style="fill:#141515;fill-opacity:1;fill-rule:nonzero;stroke:none"
             id="path54" />
        </g>
        <g
           id="g56"
           transform="translate(2138.8647,856.9491)">
          <path
             d="m 0,0 c 2.904,-3.135 4.362,-8.053 4.362,-14.764 v -55.029 c 0,-6.71 -1.458,-11.639 -4.362,-14.764 -2.915,-3.135 -7.947,-4.697 -15.1,-4.697 h -300.645 c -7.161,0 -12.195,1.562 -15.099,4.697 -2.915,3.125 -4.362,8.054 -4.362,14.764 v 402.65 c 0,6.712 1.447,11.629 4.362,14.764 2.904,3.125 7.938,4.698 15.099,4.698 h 289.237 c 7.152,0 12.185,-1.573 15.1,-4.698 2.904,-3.135 4.361,-8.052 4.361,-14.764 v -55.699 c 0,-6.711 -1.457,-11.639 -4.361,-14.764 -2.915,-3.135 -7.948,-4.697 -15.1,-4.697 h -202.667 v -73.149 h 179.85 c 7.152,0 12.185,-1.573 15.1,-4.697 2.904,-3.135 4.361,-8.054 4.361,-14.764 v -52.345 c 0,-6.711 -1.457,-11.639 -4.361,-14.763 -2.915,-3.135 -7.948,-4.698 -15.1,-4.698 h -179.85 V 4.697 H -15.1 C -7.947,4.697 -2.915,3.125 0,0"
             style="fill:#141515;fill-opacity:1;fill-rule:nonzero;stroke:none"
             id="path58" />
        </g>
        <g
           id="g60"
           transform="translate(2588.8257,779.7742)">
          <path
             d="m 0,0 c 0,-3.585 -1.122,-6.49 -3.356,-8.724 -2.244,-2.243 -5.368,-3.355 -9.394,-3.355 h -79.188 c -7.614,0 -13.874,1.562 -18.791,4.697 -4.928,3.125 -9.845,8.273 -14.764,15.436 l -72.476,108.044 c -3.136,4.027 -5.149,8.388 -6.041,13.086 -0.901,4.698 -1.342,11.744 -1.342,21.139 v 53.687 c 0,6.71 1.447,11.628 4.362,14.764 2.905,3.124 7.937,4.697 15.1,4.697 h 13.422 c 16.996,0 31.876,5.253 44.626,15.77 12.752,10.507 19.126,23.373 19.126,38.588 0,16.997 -5.819,30.754 -17.447,41.271 -11.64,10.507 -26.404,15.771 -44.293,15.771 h -89.253 V 7.382 c 0,-7.162 -1.573,-12.195 -4.699,-15.099 -3.134,-2.915 -8.052,-4.362 -14.762,-4.362 h -66.438 c -6.271,0 -10.968,1.447 -14.093,4.362 -3.135,2.904 -4.698,7.937 -4.698,15.099 v 401.98 c 0,6.71 1.342,11.628 4.027,14.764 2.685,3.124 7.601,4.697 14.764,4.697 h 169.114 c 34.896,0 62.074,-3.356 81.536,-10.066 19.461,-6.711 36.794,-17.679 52.009,-32.883 12.52,-12.08 22.146,-27.294 28.856,-45.634 6.711,-18.35 10.067,-38.252 10.067,-59.727 0,-21.925 -4.698,-42.173 -14.094,-60.733 -9.394,-18.57 -21.254,-34.12 -35.567,-46.64 -14.323,-12.53 -28.857,-21.254 -43.621,-26.172 L -2.685,9.395 C -0.902,6.26 0,3.125 0,0"
             style="fill:#141515;fill-opacity:1;fill-rule:nonzero;stroke:none"
             id="path62" />
        </g>
      </g>
    </g>
  </g>
</svg>
